<?xml version="1.0" encoding="UTF-8" standalone="no"?>
<!-- Created with Inkscape (http://www.inkscape.org/) -->

<svg
   xmlns:dc="http://purl.org/dc/elements/1.1/"
   xmlns:cc="http://creativecommons.org/ns#"
   xmlns:rdf="http://www.w3.org/1999/02/22-rdf-syntax-ns#"
   xmlns:svg="http://www.w3.org/2000/svg"
   xmlns="http://www.w3.org/2000/svg"
   xmlns:inkscape="http://www.inkscape.org/namespaces/inkscape"
   version="1.1"
   width="205.95"
   height="83.612503"
   id="svg2"
   xml:space="preserve"><metadata
     id="metadata8"><rdf:RDF><cc:Work
         rdf:about=""><dc:format>image/svg+xml</dc:format><dc:type
           rdf:resource="http://purl.org/dc/dcmitype/StillImage" /></cc:Work></rdf:RDF></metadata><defs
     id="defs6"><clipPath
       id="clipPath18"><path
         d="M 0,668.871 0,0 l 1647.63,0 0,668.871 -1647.63,0 z"
         inkscape:connector-curvature="0"
         id="path20" /></clipPath></defs><g
     transform="matrix(1.25,0,0,-1.25,0,83.6125)"
     id="g10"><g
       transform="scale(0.1,0.1)"
       id="g12"><g
         id="g14"><g
           clip-path="url(#clipPath18)"
           id="g16"><path
             d="m 517.008,249.355 c 0,-4.89 0,-5.207 6.25,-5.207 12.754,0 18.613,7.356 18.613,21.907 0,12.097 -6.641,22.668 -17.965,22.668 -6.765,0 -6.898,-0.461 -6.898,-7.512 l 0,-31.856 z m -15.106,22.059 c 0,14.699 -0.125,16.535 -6.242,17.309 l -3.387,0.457 c -0.91,1.062 -0.91,3.515 0.129,4.289 8.203,0.918 19.27,1.375 29.942,1.375 10.152,0 19.004,-1.535 24.73,-5.203 6.641,-4.145 11.457,-11.34 11.457,-22.368 0,-14.082 -9.246,-21.128 -15.621,-24.187 -0.781,-0.469 -0.523,-1.691 0,-2.609 10.414,-20.672 16.926,-33.692 23.043,-39.668 3.641,-3.668 7.414,-4.586 8.981,-4.747 0.652,-0.601 0.652,-2.292 0.261,-3.054 -1.562,-0.457 -4.039,-0.918 -8.593,-0.918 -12.497,0 -19.266,5.969 -27.207,20.215 -3.516,6.425 -7.161,14.851 -10.286,20.82 -2.339,4.602 -3.773,5.203 -8.07,5.203 -3.898,0 -4.031,-0.144 -4.031,-3.367 l 0,-19.602 c 0,-16.226 1.172,-16.687 7.289,-17.605 l 2.859,-0.457 c 0.914,-1.074 0.782,-3.828 -0.258,-4.445 -5.726,0.3 -11.586,0.457 -17.312,0.457 -5.731,0 -11.582,-0.157 -17.574,-0.457 -1.039,0.617 -1.43,3.371 -0.258,4.445 l 2.859,0.457 c 6.125,0.918 7.289,1.379 7.289,17.605 l 0,56.055"
             inkscape:connector-curvature="0"
             id="path22"
             style="fill:#231f20;fill-opacity:1;fill-rule:nonzero;stroke:none" /><path
             d="m 588.906,238.887 c 0,-17.969 6.528,-42.453 25.453,-42.453 12.618,0 22.805,11.066 22.805,37.25 0,19.656 -7.531,42.437 -25.129,42.437 -11.062,0 -23.129,-9.5 -23.129,-37.234 z m 63.313,-2.864 c 0,-25.652 -16.61,-44.793 -38.961,-44.793 -25.016,0 -39.406,20.704 -39.406,43.875 0,26.567 16.382,46.235 39.625,46.235 25.566,0 38.742,-21.621 38.742,-45.317"
             inkscape:connector-curvature="0"
             id="path24"
             style="fill:#231f20;fill-opacity:1;fill-rule:nonzero;stroke:none" /><path
             d="m 728.695,215.449 c 0,-3.906 0,-19.922 0.332,-22.922 -0.886,-1.433 -2.433,-1.953 -3.761,-1.824 -1.774,2.735 -4.985,7.168 -12.954,17.844 l -25.894,34.762 c -7.086,9.64 -10.738,14.457 -12.625,16.41 -0.332,0 -0.332,-1.43 -0.332,-8.332 l 0,-25.391 c 0,-9.766 0.113,-21.75 1.992,-25.652 0.996,-1.953 2.883,-2.864 5.645,-3.254 l 2.437,-0.391 c 0.996,-0.918 0.891,-3.39 -0.219,-3.777 -4.097,0.262 -8.414,0.387 -12.617,0.387 -4.648,0 -7.637,-0.125 -11.515,-0.387 -0.883,0.652 -1.102,2.859 -0.219,3.777 l 2.437,0.645 c 2.098,0.527 4.09,0.918 4.868,3 1.441,4.031 1.441,15.359 1.441,25.652 l 0,30.859 c 0,10.157 0.105,12.239 -3.652,16.016 -1.223,1.172 -4.317,2.219 -5.871,2.606 l -1.661,0.39 c -0.769,0.781 -0.664,3.379 0.446,3.774 4.203,-0.52 10.293,-0.395 13.062,-0.395 2.324,0 4.981,0.141 7.637,0.395 1.879,-5.598 13.945,-22.004 17.816,-26.957 l 11.071,-14.063 c 4.648,-5.984 14.941,-19.793 16.046,-20.574 0.333,0.391 0.333,1.047 0.333,3.125 l 0,25.398 c 0,9.77 -0.11,21.739 -2.102,25.649 -0.996,1.953 -2.77,2.871 -5.531,3.258 l -2.551,0.39 c -0.996,0.91 -0.883,3.379 0.226,3.774 4.317,-0.254 8.407,-0.395 12.727,-0.395 4.758,0 7.637,0.141 11.621,0.395 0.887,-0.649 1.106,-2.864 0.223,-3.774 l -2.547,-0.652 c -2.106,-0.52 -3.984,-0.906 -4.762,-2.996 -1.547,-4.035 -1.547,-15.364 -1.547,-25.649 l 0,-31.121"
             inkscape:connector-curvature="0"
             id="path26"
             style="fill:#231f20;fill-opacity:1;fill-rule:nonzero;stroke:none" /><path
             d="m 775.066,231.074 c 3.102,0 3.543,0.266 2.661,3.391 l -4.653,15.625 c -1.988,6.89 -2.543,9.375 -3.097,10.281 l -0.219,0 c -0.446,-0.906 -1.442,-4.172 -3.32,-10.281 l -4.653,-15.238 c -1.105,-3.778 -0.887,-3.778 1.774,-3.778 l 11.507,0 z m -13.281,-5.859 c -2.879,0 -2.765,0 -3.762,-3.516 l -4.539,-15.625 c -2.214,-7.683 -1.769,-7.949 2.328,-8.73 l 3.208,-0.645 c 0.777,-0.918 0.664,-3.261 -0.219,-3.777 -3.547,0.262 -7.199,0.262 -11.735,0.387 -3.652,0 -7.086,-0.125 -10.957,-0.387 -0.777,0.652 -0.882,2.605 -0.113,3.777 l 3.32,0.645 c 3.211,0.652 4.43,1.699 6.09,5.996 1.328,3.379 3.102,8.848 5.422,15.879 l 15.164,46.355 c 1.328,4.172 2.438,7.297 2.106,9.516 3.871,0.906 7.523,6.25 7.746,6.25 0.886,0 1.437,-0.395 1.883,-1.047 1.769,-5.859 3.207,-11.984 4.976,-17.844 l 15.942,-54.558 c 2.543,-8.719 3.097,-9.5 8.742,-10.801 l 1.66,-0.391 c 0.887,-0.918 0.887,-3.125 0.109,-3.777 -4.539,0.262 -8.633,0.387 -14.386,0.387 -4.758,0 -9.629,-0.262 -13.504,-0.387 -0.883,0.652 -0.996,2.996 -0.332,3.777 l 2.433,0.391 c 3.988,0.644 4.539,1.426 2.879,6.894 l -5.199,17.715 c -0.996,3.516 -1.442,3.516 -4.539,3.516 l -14.723,0"
             inkscape:connector-curvature="0"
             id="path28"
             style="fill:#231f20;fill-opacity:1;fill-rule:nonzero;stroke:none" /><path
             d="m 831.965,214.797 c 0,-6.516 0.219,-11.203 1.879,-13.41 1.328,-1.828 3.097,-2.871 11.953,-2.871 12.285,0 14.058,0.656 19.148,14.062 1.106,0.652 2.883,0.266 3.43,-0.781 -0.879,-5.469 -3.32,-15.363 -4.648,-18.875 -4.649,0.262 -14.165,0.387 -26.563,0.387 l -11.512,0 c -5.64,0 -11.179,-0.125 -15.828,-0.387 -0.883,0.516 -1.215,3.125 -0.219,3.777 l 3.321,0.645 c 5.199,1.047 6.195,1.172 6.195,14.715 l 0,48.437 c 0,13.547 -0.996,13.938 -6.195,14.848 l -3.102,0.523 c -0.769,0.649 -0.769,3.254 0.227,3.774 5.531,-0.254 10.511,-0.395 15.601,-0.395 4.871,0 9.852,0.141 14.723,0.395 0.996,-0.52 1.105,-3.125 0.223,-3.774 l -2.438,-0.523 c -5.199,-1.035 -6.195,-1.301 -6.195,-14.848 l 0,-45.699"
             inkscape:connector-curvature="0"
             id="path30"
             style="fill:#231f20;fill-opacity:1;fill-rule:nonzero;stroke:none" /><path
             d="m 891.723,217.141 c 0,-12.629 0.781,-19.407 12.511,-19.407 19.707,0 28.555,16.407 28.555,38.418 0,25.782 -12.727,38.282 -31.211,38.282 -4.648,0 -8.195,-1.043 -8.965,-1.829 -0.773,-0.781 -0.89,-3.511 -0.89,-9.628 l 0,-45.836 z m -12.832,42.578 c 0,12.5 -0.118,14.324 -5.313,14.84 l -2.324,0.265 c -0.781,0.653 -0.781,2.996 0.109,3.645 7.969,0.777 16.825,1.172 27.664,1.172 10.52,0 18.047,-1.039 26.125,-4.426 13.282,-5.735 22.696,-19.531 22.696,-38.938 0,-14.453 -6.094,-29.297 -19.817,-37.5 -7.859,-4.683 -17.383,-6.25 -27.449,-6.25 -6.75,0 -11.953,0.782 -16.047,0.782 -4.207,0 -9.187,-0.125 -14.062,-0.387 -0.879,0.516 -0.996,2.859 -0.215,3.777 l 2.433,0.391 c 5.204,0.781 6.2,1.172 6.2,14.969 l 0,47.66"
             inkscape:connector-curvature="0"
             id="path32"
             style="fill:#231f20;fill-opacity:1;fill-rule:nonzero;stroke:none" /><path
             d="m 1093.64,197.297 c 1.3,-0.617 1.17,-3.828 -0.27,-4.445 -5.59,0.3 -10.67,0.457 -15.87,0.457 -6.13,0 -11.72,-0.157 -17.45,-0.457 -1.04,0.617 -1.56,3.527 -0.26,4.445 l 3.52,0.762 c 5.2,1.074 5.59,2.144 5.59,12.554 l 0,62.641 -0.26,0 c -3.51,-8.43 -5.33,-13.02 -7.81,-19.145 l -11.2,-26.953 c -4.42,-10.722 -10.92,-27.722 -13.27,-34.922 -0.53,-0.601 -2.48,-0.601 -3.39,0 -2.2,8.274 -7.81,23.286 -10.8,30.942 l -11.59,29.402 c -2.47,6.426 -5.99,16.074 -7.55,20.676 l -0.25,0 c -0.27,-7.512 -0.53,-19.453 -0.78,-25.883 -0.27,-9.344 -0.53,-22.976 -0.53,-35.535 0,-10.098 0.14,-12.402 5.73,-13.621 l 4.3,-0.918 c 0.91,-0.918 0.91,-3.828 -0.14,-4.445 -4.81,0.3 -8.85,0.457 -13.661,0.457 -4.168,0 -8.855,-0.157 -13.926,-0.457 -1.171,0.761 -1.171,3.671 -0.39,4.445 l 2.207,0.301 c 6.25,0.918 7.16,3.211 8.078,12.558 0.906,9.649 1.297,19.602 1.953,35.528 0.516,10.41 1.297,23.125 1.297,32.468 0,7.2 -1.953,10.254 -7.031,11.328 l -4.422,0.918 c -0.781,1.079 -0.656,3.989 0.515,4.446 3.907,-0.313 7.422,-0.457 12.239,-0.457 4.561,0 9.111,0 13.921,0.457 0.53,-9.192 3.78,-17.149 7.17,-25.418 l 14.32,-35.383 c 1.03,-2.598 4.42,-10.254 6.11,-13.777 2.09,4.441 3.78,8.726 6.77,15.925 l 12.24,29.407 c 4.17,10.105 8.33,19.136 10.54,29.246 3.52,-0.313 7.81,-0.457 10.68,-0.457 5.46,0 10.02,0.144 13.67,0.457 1.42,-0.617 1.69,-3.528 0.39,-4.446 l -4.3,-0.757 c -5.73,-1.079 -7.03,-3.528 -7.03,-11.645 0,-22.664 0.26,-45.332 1.17,-67.996 0.39,-10.254 1.83,-11.172 5.99,-11.941 l 3.78,-0.762"
             inkscape:connector-curvature="0"
             id="path34"
             style="fill:#231f20;fill-opacity:1;fill-rule:nonzero;stroke:none" /><path
             d="m 1167.88,257.371 c -0.78,-1.031 -2.77,-1.172 -3.55,-0.254 -1.87,8.203 -6.85,19.004 -21.47,19.004 -14.06,0 -28.23,-11.719 -28.23,-38.406 0,-27.735 14.73,-41.281 29.01,-41.281 13.94,0 20.03,10.937 23.13,19.406 1,1.172 2.77,0.644 3.32,-0.528 -0.78,-8.718 -3.77,-17.316 -5.31,-19.785 -1.33,-0.261 -2.66,-0.781 -3.88,-1.172 -2.43,-0.917 -10.07,-3.125 -17.26,-3.125 -10.96,0 -20.37,2.598 -28.34,8.719 -8.97,6.906 -15.72,18.75 -15.72,35.813 0,15.234 5.76,27.082 13.95,34.504 8.19,7.293 19.37,11.074 30.55,11.074 6.31,0 13.94,-1.313 19.15,-2.871 1.33,-0.395 2.1,-0.52 3.09,-0.785 0.23,-2.989 0.45,-10.672 1.56,-20.313"
             inkscape:connector-curvature="0"
             id="path36"
             style="fill:#231f20;fill-opacity:1;fill-rule:nonzero;stroke:none" /><path
             d="m 1200.12,221.34 c 0,-14.856 0.92,-22.824 14.72,-22.824 23.16,0 33.58,19.296 33.58,45.175 0,30.325 -14.97,45.032 -36.71,45.032 -5.46,0 -9.63,-1.235 -10.54,-2.153 -0.91,-0.918 -1.05,-4.129 -1.05,-11.328 l 0,-53.902 z m -15.1,50.074 c 0,14.699 -0.12,16.848 -6.25,17.453 l -2.73,0.313 c -0.91,0.761 -0.91,3.515 0.14,4.289 9.37,0.918 19.78,1.375 32.54,1.375 12.37,0 21.22,-1.231 30.72,-5.203 15.62,-6.743 26.69,-22.969 26.69,-45.793 0,-17 -7.17,-34.453 -23.3,-44.102 -9.25,-5.519 -20.44,-7.351 -32.29,-7.351 -7.94,0 -14.06,0.914 -18.87,0.914 -4.95,0 -10.81,-0.157 -16.54,-0.457 -1.03,0.617 -1.17,3.371 -0.26,4.445 l 2.87,0.457 c 6.11,0.918 7.28,1.379 7.28,17.605 l 0,56.055"
             inkscape:connector-curvature="0"
             id="path38"
             style="fill:#231f20;fill-opacity:1;fill-rule:nonzero;stroke:none" /><path
             d="m 1288.69,238.887 c 0,-17.969 6.53,-42.453 25.46,-42.453 12.61,0 22.8,11.066 22.8,37.25 0,19.656 -7.53,42.437 -25.13,42.437 -11.06,0 -23.13,-9.5 -23.13,-37.234 z m 63.31,-2.864 c 0,-25.652 -16.6,-44.793 -38.96,-44.793 -25.02,0 -39.4,20.704 -39.4,43.875 0,26.567 16.37,46.235 39.62,46.235 25.57,0 38.74,-21.621 38.74,-45.317"
             inkscape:connector-curvature="0"
             id="path40"
             style="fill:#231f20;fill-opacity:1;fill-rule:nonzero;stroke:none" /><path
             d="m 1428.47,215.449 c 0,-3.906 0,-19.922 0.33,-22.922 -0.88,-1.433 -2.43,-1.953 -3.76,-1.824 -1.76,2.735 -4.98,7.168 -12.95,17.844 l -25.89,34.762 c -7.09,9.64 -10.75,14.457 -12.62,16.41 -0.33,0 -0.33,-1.43 -0.33,-8.332 l 0,-25.391 c 0,-9.766 0.1,-21.75 1.99,-25.652 1,-1.953 2.87,-2.864 5.64,-3.254 l 2.44,-0.391 c 0.99,-0.918 0.88,-3.39 -0.23,-3.777 -4.09,0.262 -8.41,0.387 -12.62,0.387 -4.64,0 -7.63,-0.125 -11.5,-0.387 -0.89,0.652 -1.11,2.859 -0.22,3.777 l 2.43,0.645 c 2.11,0.527 4.1,0.918 4.87,3 1.44,4.031 1.44,15.359 1.44,25.652 l 0,30.859 c 0,10.157 0.11,12.239 -3.66,16.016 -1.21,1.172 -4.31,2.219 -5.86,2.606 l -1.66,0.39 c -0.78,0.781 -0.66,3.379 0.44,3.774 4.21,-0.52 10.3,-0.395 13.06,-0.395 2.32,0 4.98,0.141 7.64,0.395 1.88,-5.598 13.94,-22.004 17.82,-26.957 l 11.07,-14.063 c 4.65,-5.984 14.94,-19.793 16.05,-20.574 0.33,0.391 0.33,1.047 0.33,3.125 l 0,25.398 c 0,9.77 -0.11,21.739 -2.1,25.649 -1,1.953 -2.77,2.871 -5.54,3.258 l -2.55,0.39 c -0.99,0.91 -0.87,3.379 0.23,3.774 4.32,-0.254 8.41,-0.395 12.72,-0.395 4.77,0 7.64,0.141 11.62,0.395 0.89,-0.649 1.12,-2.864 0.23,-3.774 l -2.55,-0.652 c -2.1,-0.52 -3.98,-0.906 -4.76,-2.996 -1.55,-4.035 -1.55,-15.364 -1.55,-25.649 l 0,-31.121"
             inkscape:connector-curvature="0"
             id="path42"
             style="fill:#231f20;fill-opacity:1;fill-rule:nonzero;stroke:none" /><path
             d="m 1474.85,231.074 c 3.1,0 3.54,0.266 2.65,3.391 l -4.64,15.625 c -2,6.89 -2.54,9.375 -3.1,10.281 l -0.22,0 c -0.44,-0.906 -1.44,-4.172 -3.32,-10.281 l -4.65,-15.238 c -1.11,-3.778 -0.88,-3.778 1.77,-3.778 l 11.51,0 z m -13.28,-5.859 c -2.87,0 -2.77,0 -3.76,-3.516 l -4.54,-15.625 c -2.21,-7.683 -1.77,-7.949 2.32,-8.73 l 3.21,-0.645 c 0.78,-0.918 0.67,-3.261 -0.22,-3.777 -3.54,0.262 -7.19,0.262 -11.73,0.387 -3.65,0 -7.08,-0.125 -10.96,-0.387 -0.77,0.652 -0.89,2.605 -0.1,3.777 l 3.32,0.645 c 3.2,0.652 4.42,1.699 6.08,5.996 1.33,3.379 3.1,8.848 5.42,15.879 l 15.17,46.355 c 1.32,4.172 2.43,7.297 2.1,9.516 3.87,0.906 7.53,6.25 7.75,6.25 0.88,0 1.44,-0.395 1.87,-1.047 1.78,-5.859 3.22,-11.984 4.99,-17.844 l 15.94,-54.558 c 2.54,-8.719 3.1,-9.5 8.74,-10.801 l 1.66,-0.391 c 0.89,-0.918 0.89,-3.125 0.11,-3.777 -4.53,0.262 -8.63,0.387 -14.38,0.387 -4.76,0 -9.63,-0.262 -13.51,-0.387 -0.89,0.652 -1,2.996 -0.33,3.777 l 2.43,0.391 c 3.98,0.644 4.54,1.426 2.88,6.894 l -5.2,17.715 c -1,3.516 -1.44,3.516 -4.54,3.516 l -14.72,0"
             inkscape:connector-curvature="0"
             id="path44"
             style="fill:#231f20;fill-opacity:1;fill-rule:nonzero;stroke:none" /><path
             d="m 1531.74,214.797 c 0,-6.516 0.23,-11.203 1.89,-13.41 1.33,-1.828 3.09,-2.871 11.95,-2.871 12.29,0 14.06,0.656 19.15,14.062 1.1,0.652 2.88,0.266 3.43,-0.781 -0.88,-5.469 -3.32,-15.363 -4.65,-18.875 -4.65,0.262 -14.17,0.387 -26.56,0.387 l -11.52,0 c -5.64,0 -11.17,-0.125 -15.82,-0.387 -0.88,0.516 -1.22,3.125 -0.22,3.777 l 3.32,0.645 c 5.21,1.047 6.2,1.172 6.2,14.715 l 0,48.437 c 0,13.547 -0.99,13.938 -6.2,14.848 l -3.1,0.523 c -0.78,0.649 -0.78,3.254 0.22,3.774 5.54,-0.254 10.52,-0.395 15.6,-0.395 4.88,0 9.86,0.141 14.73,0.395 1,-0.52 1.1,-3.125 0.22,-3.774 l -2.44,-0.523 c -5.2,-1.035 -6.2,-1.301 -6.2,-14.848 l 0,-45.699"
             inkscape:connector-curvature="0"
             id="path46"
             style="fill:#231f20;fill-opacity:1;fill-rule:nonzero;stroke:none" /><path
             d="m 1591.51,217.141 c 0,-12.629 0.78,-19.407 12.51,-19.407 19.71,0 28.55,16.407 28.55,38.418 0,25.782 -12.72,38.282 -31.21,38.282 -4.65,0 -8.19,-1.043 -8.96,-1.829 -0.77,-0.781 -0.89,-3.511 -0.89,-9.628 l 0,-45.836 z m -12.83,42.578 c 0,12.5 -0.12,14.324 -5.32,14.84 l -2.32,0.265 c -0.78,0.653 -0.78,2.996 0.11,3.645 7.97,0.777 16.82,1.172 27.66,1.172 10.52,0 18.05,-1.039 26.13,-4.426 13.28,-5.735 22.69,-19.531 22.69,-38.938 0,-14.453 -6.09,-29.297 -19.81,-37.5 -7.86,-4.683 -17.39,-6.25 -27.45,-6.25 -6.75,0 -11.96,0.782 -16.05,0.782 -4.21,0 -9.19,-0.125 -14.06,-0.387 -0.88,0.516 -1,2.859 -0.22,3.777 l 2.44,0.391 c 5.2,0.781 6.2,1.172 6.2,14.969 l 0,47.66"
             inkscape:connector-curvature="0"
             id="path48"
             style="fill:#231f20;fill-opacity:1;fill-rule:nonzero;stroke:none" /><path
             d="m 524.039,106.152 c -6.641,0 -7.031,-0.3 -7.031,-4.441 l 0,-22.5118 c 0,-16.2304 1.172,-16.5312 7.289,-17.4609 l 3.906,-0.6055 c 0.906,-1.0742 0.781,-3.8281 -0.265,-4.4453 -6.766,0.3047 -12.626,0.4609 -18.352,0.4609 -5.731,0 -11.582,-0.1562 -16.527,-0.4609 -1.047,0.6172 -1.172,3.3711 -0.266,4.4453 l 1.82,0.3008 c 6.125,1.0781 7.289,1.5352 7.289,17.7656 l 0,56.9728 c 0,16.23 -1.164,16.687 -7.289,17.605 l -2.859,0.461 c -0.914,0.774 -0.781,3.828 0.258,4.446 5.726,-0.305 11.843,-0.461 17.574,-0.461 5.726,0 11.586,0.156 16.664,0.461 1.039,-0.618 1.172,-3.672 0.258,-4.446 l -2.211,-0.461 c -6.117,-1.218 -7.289,-1.375 -7.289,-17.605 l 0,-18.535 c 0,-4.285 0.39,-4.59 7.031,-4.59 l 30.457,0 c 6.637,0 7.027,0.305 7.027,4.59 l 0,18.535 c 0,16.23 -1.171,16.687 -7.289,17.605 l -2.863,0.461 c -0.91,0.774 -0.781,3.828 0.262,4.446 5.988,-0.305 11.844,-0.461 17.57,-0.461 5.731,0 11.59,0.156 16.793,0.461 1.047,-0.618 1.172,-3.672 0.266,-4.446 l -2.344,-0.461 c -6.121,-1.218 -7.293,-1.375 -7.293,-17.605 l 0,-56.9728 c 0,-16.2304 1.172,-16.6875 7.293,-17.6054 l 2.859,-0.461 c 0.914,-1.0742 0.782,-3.8281 -0.257,-4.4453 -5.727,0.3047 -11.586,0.4609 -17.317,0.4609 -5.984,0 -11.844,-0.1562 -17.57,-0.4609 -1.043,0.6172 -1.172,3.3711 -0.262,4.4453 l 2.863,0.461 c 6.118,0.9179 7.289,1.375 7.289,17.6054 l 0,22.5118 c 0,4.141 -0.39,4.441 -7.027,4.441 l -30.457,0"
             inkscape:connector-curvature="0"
             id="path50"
             style="fill:#231f20;fill-opacity:1;fill-rule:nonzero;stroke:none" /><path
             d="m 609.215,102.727 c 0,-17.9692 6.527,-42.4536 25.453,-42.4536 12.617,0 22.805,11.0664 22.805,37.2461 0,19.6605 -7.532,42.4415 -25.129,42.4415 -11.067,0 -23.129,-9.5 -23.129,-37.234 z m 63.308,-2.8637 c 0,-25.6524 -16.605,-44.7969 -38.961,-44.7969 -25.011,0 -39.402,20.7031 -39.402,43.8789 0,26.5627 16.383,46.2307 39.625,46.2307 25.567,0 38.738,-21.621 38.738,-45.3127"
             inkscape:connector-curvature="0"
             id="path52"
             style="fill:#231f20;fill-opacity:1;fill-rule:nonzero;stroke:none" /><path
             d="m 687.461,124.336 c 0,13.809 -0.996,14.062 -6.195,15.105 l -1.879,0.395 c -0.778,0.906 -0.664,3.125 0.218,3.641 4.426,-0.254 9.411,-0.391 14.278,-0.391 4.98,0 9.961,0.137 14.832,0.391 0.887,-0.516 0.996,-2.735 0.223,-3.641 l -2.438,-0.395 c -5.199,-0.781 -6.195,-1.296 -6.195,-15.105 l 0,-29.8165 c 0,-17.9648 4.644,-33.0742 20.031,-33.0742 14.5,0 20.476,12.8906 20.476,32.6875 l 0,16.2772 c 0,9.766 -0.113,21.875 -2.105,25.645 -0.996,1.953 -2.766,2.871 -5.531,3.386 l -2.215,0.395 c -0.996,0.906 -0.887,3.25 0.223,3.641 3.761,-0.254 7.964,-0.391 12.285,-0.391 4.644,0 7.636,0.137 11.73,0.391 0.887,-0.645 1.11,-2.735 0.223,-3.641 l -2.434,-0.656 c -2.105,-0.52 -4.097,-1.035 -4.875,-3.125 -1.547,-3.907 -1.547,-15.364 -1.547,-25.645 l 0,-15.4998 c 0,-11.8516 -1.55,-22.793 -7.304,-30.0743 -5.754,-7.2968 -14.059,-9.7695 -21.696,-9.7695 -10.402,0 -17.707,2.6016 -22.8,8.332 -4.981,5.5938 -7.305,14.7149 -7.305,27.8711 l 0,33.0665"
             inkscape:connector-curvature="0"
             id="path54"
             style="fill:#231f20;fill-opacity:1;fill-rule:nonzero;stroke:none" /><path
             d="m 762.504,60.5352 c -1.992,2.7343 -3.434,11.7226 -3.32,19.7851 0.664,1.3125 2.546,1.4375 3.429,0.5313 1.992,-6.6407 7.969,-20.5782 18.817,-20.5782 8.414,0 13.172,5.9883 13.172,13.9375 0,7.4219 -2.993,13.4063 -11.29,18.875 l -4.761,3.125 c -8.301,5.4691 -15.606,13.4181 -15.606,25.1371 0,12.89 8.192,23.828 24.352,23.828 5.754,0 9.961,-1.563 15.164,-2.735 1.215,-2.871 2.324,-11.464 2.324,-17.578 -0.555,-1.172 -2.551,-1.308 -3.547,-0.39 -1.66,6.765 -5.531,15.488 -14.937,15.488 -8.856,0 -12.508,-6.77 -12.508,-13.672 0,-5.469 3.211,-11.328 10.516,-15.879 l 6.863,-4.297 c 7.191,-4.433 15.16,-12.4997 15.16,-25.6521 0,-14.8476 -9.629,-25.3945 -25.68,-25.3945 -10.179,0 -15.933,3.9102 -18.148,5.4688"
             inkscape:connector-curvature="0"
             id="path56"
             style="fill:#231f20;fill-opacity:1;fill-rule:nonzero;stroke:none" /><path
             d="m 821.824,124.336 c 0,13.809 -0.996,14.324 -6.195,15.105 l -1.774,0.266 c -0.769,0.906 -0.664,3.254 0.227,3.77 4.203,-0.254 9.402,-0.391 14.277,-0.391 l 21.137,0 c 7.086,0 13.508,0.137 14.942,0.391 0.449,-2.207 1.113,-12.5 1.777,-18.094 -0.449,-1.047 -2.66,-1.301 -3.543,-0.52 -1.774,7.547 -3.434,10.672 -6.973,11.848 -2.551,0.777 -5.871,1.172 -8.859,1.172 l -7.41,0 c -4.762,0 -4.762,-0.266 -4.762,-7.688 l 0,-22.004 c 0,-3.386 0.113,-3.511 2.656,-3.511 l 5.313,0 c 9.629,0 11.289,0.125 12.285,5.73 l 0.777,4.426 c 0.883,0.906 2.989,0.906 3.539,-0.129 -0.113,-3.516 -0.332,-8.203 -0.332,-13.027 0,-4.9417 0.219,-9.5003 0.332,-13.6722 -0.55,-0.9062 -2.656,-0.9062 -3.539,-0.125 l -0.777,5.2031 c -0.777,5.4688 -2.656,5.7305 -12.285,5.7305 l -5.313,0 c -2.543,0 -2.656,-0.2617 -2.656,-3.5117 l 0,-16.543 c 0,-6.6445 0.219,-11.3281 1.879,-13.5351 1.328,-1.8282 3.215,-2.7383 12.512,-2.875 14.05,-0.125 16.492,3.5156 20.359,14.0664 0.996,0.9179 2.883,0.5234 3.547,-0.7813 -0.664,-5.4687 -3.098,-15.3633 -4.649,-18.8789 -4.875,0.2617 -14.39,0.3906 -27.339,0.3906 l -12.618,0 c -4.875,0 -11.621,-0.1289 -16.601,-0.3906 -0.891,0.5156 -0.996,2.8594 -0.227,3.7774 l 4.098,0.5195 c 5.199,0.6562 6.195,1.0469 6.195,14.8437 l 0,48.4376"
             inkscape:connector-curvature="0"
             id="path58"
             style="fill:#231f20;fill-opacity:1;fill-rule:nonzero;stroke:none" /><path
             d="m 1010.51,83.1836 c 0,-4.5977 0,-23.4258 0.39,-26.9531 -1.03,-1.6875 -2.86,-2.2969 -4.42,-2.1485 -2.08,3.2227 -5.86,8.4297 -15.226,20.9844 l -30.457,40.8906 c -8.34,11.328 -12.629,16.992 -14.844,19.297 -0.391,0 -0.391,-1.692 -0.391,-9.805 l 0,-29.8631 c 0,-11.4843 0.126,-25.5742 2.344,-30.164 1.172,-2.2969 3.387,-3.3711 6.641,-3.8281 l 2.859,-0.461 c 1.172,-1.0742 1.047,-3.9844 -0.261,-4.4453 -4.817,0.3047 -9.895,0.4609 -14.836,0.4609 -5.469,0 -8.985,-0.1562 -13.536,-0.4609 -1.043,0.7617 -1.308,3.3711 -0.261,4.4453 l 2.859,0.7617 c 2.473,0.6172 4.817,1.0743 5.734,3.5274 1.688,4.7461 1.688,18.0625 1.688,30.164 l 0,36.3011 c 0,11.941 0.129,14.39 -4.297,18.828 -1.434,1.387 -5.078,2.605 -6.894,3.062 l -1.954,0.461 c -0.918,0.918 -0.781,3.985 0.52,4.446 4.941,-0.618 12.109,-0.461 15.359,-0.461 2.735,0 5.86,0.156 8.985,0.461 2.207,-6.582 16.398,-25.879 20.957,-31.704 l 13.019,-16.542 c 5.457,-7.04 17.572,-23.27 18.862,-24.188 0.4,0.4609 0.4,1.2227 0.4,3.6719 l 0,29.8631 c 0,11.485 -0.13,25.574 -2.48,30.164 -1.17,2.297 -3.247,3.371 -6.5,3.828 l -2.997,0.461 c -1.171,1.074 -1.046,3.985 0.262,4.446 5.078,-0.305 9.895,-0.461 14.975,-0.461 5.59,0 8.97,0.156 13.66,0.461 1.04,-0.762 1.3,-3.372 0.26,-4.446 l -3,-0.761 c -2.47,-0.618 -4.68,-1.075 -5.59,-3.528 -1.83,-4.746 -1.83,-18.062 -1.83,-30.164 l 0,-36.6014"
             inkscape:connector-curvature="0"
             id="path60"
             style="fill:#231f20;fill-opacity:1;fill-rule:nonzero;stroke:none" /><path
             d="m 1035.53,124.336 c 0,13.809 -0.99,14.324 -6.2,15.105 l -1.77,0.266 c -0.78,0.906 -0.66,3.254 0.22,3.77 4.21,-0.254 9.41,-0.391 14.28,-0.391 l 21.14,0 c 7.08,0 13.5,0.137 14.94,0.391 0.45,-2.207 1.11,-12.5 1.78,-18.094 -0.45,-1.047 -2.66,-1.301 -3.55,-0.52 -1.77,7.547 -3.43,10.672 -6.97,11.848 -2.55,0.777 -5.87,1.172 -8.86,1.172 l -7.41,0 c -4.77,0 -4.77,-0.266 -4.77,-7.688 l 0,-22.004 c 0,-3.386 0.12,-3.511 2.66,-3.511 l 5.31,0 c 9.63,0 11.29,0.125 12.29,5.73 l 0.78,4.426 c 0.88,0.906 2.99,0.906 3.53,-0.129 -0.1,-3.516 -0.33,-8.203 -0.33,-13.027 0,-4.9417 0.23,-9.5003 0.34,-13.6722 -0.55,-0.9062 -2.66,-0.9062 -3.54,-0.125 l -0.78,5.2031 c -0.77,5.4688 -2.66,5.7305 -12.29,5.7305 l -5.31,0 c -2.54,0 -2.66,-0.2617 -2.66,-3.5117 l 0,-16.543 c 0,-6.6445 0.23,-11.3281 1.89,-13.5351 1.33,-1.8282 3.21,-2.7383 12.51,-2.875 14.05,-0.125 16.49,3.5156 20.36,14.0664 1,0.9179 2.88,0.5234 3.55,-0.7813 -0.67,-5.4687 -3.1,-15.3633 -4.65,-18.8789 -4.88,0.2617 -14.4,0.3906 -27.35,0.3906 l -12.61,0 c -4.87,0 -11.63,-0.1289 -16.61,-0.3906 -0.87,0.5156 -0.99,2.8594 -0.21,3.7774 l 4.09,0.5195 c 5.21,0.6562 6.2,1.0469 6.2,14.8437 l 0,48.4376"
             inkscape:connector-curvature="0"
             id="path62"
             style="fill:#231f20;fill-opacity:1;fill-rule:nonzero;stroke:none" /><path
             d="m 1192.81,139.18 c -5.09,-1.297 -6.75,-4.035 -10.85,-14.707 -8.41,-22.012 -15.61,-39.8558 -21.8,-58.0785 -1.66,-4.8242 -2.55,-8.3359 -3.54,-10.8086 -0.34,-0.2656 -1.11,-0.5195 -1.89,-0.5195 -0.77,0 -1.54,0.1289 -1.99,0.5195 -2.32,8.0743 -9.3,24.875 -13.72,36.0743 -4.98,-11.8555 -9.85,-23.8399 -14.06,-36.0743 -0.34,-0.2656 -1.11,-0.5195 -1.88,-0.5195 -0.78,0 -1.55,0.1289 -1.99,0.5195 -1.78,5.8594 -4.54,12.8907 -7.76,20.8321 l -21.35,53.262 c -2.33,5.855 -3.43,7.937 -7.97,9.246 l -3.1,0.91 c -0.78,0.777 -0.66,2.996 0.34,3.641 3.98,-0.254 8.63,-0.391 13.38,-0.391 3.99,0 8.2,0.137 13.51,0.391 0.88,-0.645 1,-2.864 0.33,-3.641 l -2.77,-0.781 c -1.44,-0.395 -2.54,-0.91 -2.54,-2.082 0,-1.172 0.77,-3.782 2.66,-8.731 l 13.16,-33.5936 c 3.88,-9.8906 6.64,-16.6718 7.75,-18.75 2.33,5.2032 4.76,11.3282 7.42,18.1055 0.78,1.9531 1.55,4.1602 1.55,4.9414 0,0.6563 -0.33,2.2147 -1,3.9067 l -11.62,28.906 c -2.11,5.215 -3.44,6.512 -6.42,7.297 l -3.21,0.781 c -0.78,0.906 -0.66,2.996 0.33,3.641 4.54,-0.254 8.19,-0.391 11.96,-0.391 4.42,0 8.74,0.137 13.17,0.391 0.88,-0.516 1,-2.864 0.22,-3.641 l -2.99,-0.781 c -1.21,-0.266 -1.88,-0.91 -1.88,-1.828 0,-0.782 0.22,-2.207 1,-4.297 2.43,-6.504 4.98,-13.145 7.52,-19.004 1.88,4.426 3.65,9.238 5.43,14.062 1.66,4.551 2.43,7.813 2.43,8.985 0,0.91 -0.66,1.562 -2.22,1.953 l -3.09,0.91 c -0.77,1.043 -0.56,3.125 0.33,3.641 2.99,-0.254 6.08,-0.391 10.29,-0.391 3.88,0 6.54,0.137 10.07,0.391 1.11,-0.645 1.11,-2.989 0.23,-3.77 l -2.77,-0.652 c -4.1,-0.91 -5.2,-2.473 -8.75,-10.16 -2.43,-5.204 -5.19,-12.235 -7.64,-18.094 -0.54,-1.438 -1.1,-3.262 -1.1,-3.653 0,-0.39 0.33,-1.562 0.89,-3.125 l 4.76,-12.1089 c 2.32,-5.8594 5.2,-13.8008 6.2,-16.0157 5.64,15.4961 11.62,32.6876 17.48,49.2186 1.88,5.344 3.43,10.418 3.43,12.11 0,0.918 -1.99,1.308 -3.76,1.953 l -1.88,0.656 c -1,0.906 -1,2.996 0.11,3.641 4.09,-0.254 7.53,-0.391 11.29,-0.391 3.76,0 7.19,0.137 10.62,0.391 0.89,-0.645 1.11,-2.469 0.33,-3.641 l -2.65,-0.656"
             inkscape:connector-curvature="0"
             id="path64"
             style="fill:#231f20;fill-opacity:1;fill-rule:nonzero;stroke:none" /><path
             d="m 1245.99,88.2305 c 0,8.5859 -0.64,10.8789 -4.16,18.9965 l -15.62,36.289 c -2.87,6.589 -3.91,8.269 -9.76,9.804 l -3.39,0.918 c -0.78,1.074 -0.52,3.985 0.52,4.446 5.6,-0.305 11.06,-0.461 16.41,-0.461 5.72,0 13.66,0.156 16.66,0.461 1.04,-0.618 1.29,-3.372 0.26,-4.446 l -3.91,-0.761 c -2.08,-0.457 -2.73,-0.774 -2.73,-1.993 0,-1.23 0.39,-2.91 2.34,-7.968 5.08,-13.164 9.89,-25.567 15.1,-36.746 5.34,11.636 10.16,22.351 15.23,33.835 2.21,5.215 3.52,8.583 3.52,10.262 0,1.535 -1.17,1.992 -3,2.297 l -3.9,1.074 c -0.91,1.074 -0.91,3.684 0.39,4.446 5.73,-0.305 9.76,-0.461 13.67,-0.461 4.03,0 8.19,0.156 12.36,0.461 1.17,-0.762 1.17,-3.215 0.27,-4.446 l -3.78,-0.918 c -5.86,-1.379 -7.43,-4.132 -14.19,-17.605 -4.43,-8.735 -8.33,-17.16 -12.37,-25.735 -3.9,-7.96 -4.81,-11.1792 -4.81,-21.5894 l 0,-9.1914 c 0,-16.2304 1.17,-16.6875 7.55,-17.4609 l 4.94,-0.6055 c 0.92,-1.0742 0.78,-3.8281 -0.26,-4.4453 -8.07,0.3047 -13.93,0.4609 -19.65,0.4609 -5.99,0 -11.85,-0.1562 -18.88,-0.4609 -1.05,0.6172 -1.17,3.3711 -0.26,4.4453 l 4.17,0.6055 c 6.11,0.9297 7.28,1.2305 7.28,17.4609 l 0,9.0313"
             inkscape:connector-curvature="0"
             id="path66"
             style="fill:#231f20;fill-opacity:1;fill-rule:nonzero;stroke:none" /><path
             d="m 1303.31,102.727 c 0,-17.9692 6.53,-42.4536 25.45,-42.4536 12.62,0 22.81,11.0664 22.81,37.2461 0,19.6605 -7.53,42.4415 -25.13,42.4415 -11.06,0 -23.13,-9.5 -23.13,-37.234 z m 63.31,-2.8637 c 0,-25.6524 -16.61,-44.7969 -38.96,-44.7969 -25.02,0 -39.4,20.7031 -39.4,43.8789 0,26.5627 16.37,46.2307 39.62,46.2307 25.57,0 38.74,-21.621 38.74,-45.3127"
             inkscape:connector-curvature="0"
             id="path68"
             style="fill:#231f20;fill-opacity:1;fill-rule:nonzero;stroke:none" /><path
             d="m 1395.06,104.805 c 0,-4.16 0,-4.422 5.32,-4.422 10.85,0 15.83,6.25 15.83,18.621 0,10.281 -5.65,19.266 -15.28,19.266 -5.75,0 -5.87,-0.387 -5.87,-6.375 l 0,-27.09 z m -12.83,18.75 c 0,12.5 -0.12,14.062 -5.31,14.715 l -2.88,0.39 c -0.77,0.91 -0.77,3 0.11,3.645 6.97,0.781 16.38,1.172 25.45,1.172 8.64,0 16.17,-1.297 21.04,-4.422 5.64,-3.52 9.74,-9.641 9.74,-19.016 0,-11.973 -7.87,-17.969 -13.29,-20.5663 -0.66,-0.3907 -0.44,-1.4375 0,-2.2149 8.86,-17.5781 14.39,-28.6562 19.59,-33.7344 3.1,-3.125 6.31,-3.9062 7.64,-4.0312 0.56,-0.5156 0.56,-1.9531 0.23,-2.6055 -1.33,-0.3945 -3.44,-0.7851 -7.31,-0.7851 -10.62,0 -16.39,5.082 -23.13,17.1914 -2.99,5.4687 -6.1,12.6367 -8.75,17.7148 -2,3.9024 -3.21,4.4219 -6.86,4.4219 -3.32,0 -3.44,-0.125 -3.44,-2.8633 l 0,-16.668 c 0,-13.7968 1,-14.1875 6.2,-14.9687 l 2.44,-0.3945 c 0.78,-0.918 0.66,-3.2618 -0.22,-3.7774 -4.87,0.2617 -9.85,0.3906 -14.73,0.3906 -4.86,0 -9.84,-0.1289 -14.94,-0.3906 -0.88,0.5156 -1.21,2.8594 -0.21,3.7774 l 2.43,0.3945 c 5.21,0.7812 6.2,1.1719 6.2,14.9687 l 0,47.6566"
             inkscape:connector-curvature="0"
             id="path70"
             style="fill:#231f20;fill-opacity:1;fill-rule:nonzero;stroke:none" /><path
             d="m 1465.45,109.883 c 0,-3.516 0.12,-5.86 1.89,-5.86 2.1,0 4.65,2.997 8.3,7.688 l 11.29,14.324 c 1.43,1.692 4.65,5.985 5.98,8.067 1.99,3 2.1,4.043 0.78,4.433 l -3.44,1.172 c -0.88,0.906 -0.67,2.734 0.22,3.77 4.65,-0.254 8.3,-0.391 12.4,-0.391 4.76,0 8.19,0.266 12.17,0.391 1.22,-0.391 1.44,-3.125 0.34,-3.77 -10.3,-1.699 -13.29,-4.824 -20.92,-13.547 -4.76,-5.594 -9.19,-10.933 -13.51,-16.015 -1.33,-1.559 -1.55,-2.34 -0.33,-4.293 8.75,-13.5473 19.26,-29.0434 27.23,-39.9848 2.32,-3.25 4.87,-4.4219 8.19,-4.9375 l 2.66,-0.3945 c 0.77,-0.6524 0.66,-3.3868 -0.23,-3.7774 -3.87,0.2617 -8.3,0.3906 -14.16,0.3906 -5.43,0 -10.41,-0.1289 -15.27,-0.3906 -1.22,0.5156 -1.22,3.125 -0.23,3.7774 l 2.99,0.5195 c 1.77,0.2617 1.99,1.6875 0.77,3.5156 -4.65,6.7695 -17.82,27.8711 -21.91,32.8125 -0.77,0.918 -1.66,1.9531 -2.66,1.9531 -2.76,0 -2.55,-3.125 -2.55,-6.8945 l 0,-16.543 c 0,-13.7968 1,-14.1875 6.21,-14.9687 l 2.76,-0.3945 c 0.78,-0.6524 0.66,-3.2618 -0.22,-3.7774 -5.2,0.2617 -10.18,0.3906 -15.05,0.3906 -4.87,0 -10.07,-0.1289 -14.06,-0.3906 -0.89,0.5156 -0.99,3.125 -0.22,3.7774 l 1.55,0.2578 c 5.21,0.9179 6.2,1.3086 6.2,15.1054 l 0,48.4376 c 0,13.809 -0.99,14.062 -6.2,14.98 l -2.1,0.391 c -0.78,0.906 -0.66,3.254 0.22,3.77 4.54,-0.254 9.52,-0.391 14.61,-0.391 4.87,0 9.85,0.137 14.17,0.391 0.88,-0.516 0.99,-3.125 0.22,-3.77 l -1.88,-0.391 c -5.21,-1.046 -6.21,-1.171 -6.21,-14.98 l 0,-14.453"
             inkscape:connector-curvature="0"
             id="path72"
             style="fill:#231f20;fill-opacity:1;fill-rule:nonzero;stroke:none" /><path
             d="m 408.773,639.055 1.192,-21.258 c -6.192,0 -1.766,-8.281 -7.074,-8.574 -9.446,-29.223 -39.274,-25.082 -50.801,-52.25 -6.195,-8.555 -11.801,-17.11 -11.5,-28.336 l -5.602,-4.438 c 0.594,-1.773 2.942,-1.48 4.121,-1.48 l 0,-5.61 -9.734,0 c -7.094,21.551 13.281,42.524 4.121,65.25 -15.043,19.496 -48.121,35.438 -32.457,63.77 3.527,-1.164 6.195,3.242 7.063,5.617 0.32,1.465 -0.868,2.059 -1.461,2.938 7.671,11.234 23.32,7.679 33.949,8.582 3.848,-0.602 6.793,-4.422 10.039,-7.094 7.98,4.726 10.914,12.992 22.726,9.746 l 2.668,2.953 c 13.579,-6.508 33.356,-10.027 32.75,-29.816"
             inkscape:connector-curvature="0"
             id="path74"
             style="fill:#ee2722;fill-opacity:1;fill-rule:nonzero;stroke:none" /><path
             d="m 395.797,643.184 c 1.183,-8.262 1.488,-20.063 -2.66,-28.344 -2.067,-2.965 -10.032,-4.442 -10.032,-9.758 l -2.667,0 -32.762,-29.809 c -2.067,21.559 -22.141,26.282 -30.996,43.981 -7.985,1.496 -6.192,10.941 -4.422,15.668 3.828,6.195 8.836,12.976 15.637,16.824 8.554,3.238 16.543,-3.848 18.312,-12.691 8.27,-1.493 6.481,-15.934 15.641,-11.227 4.722,4.129 3.25,7.68 1.476,12.703 -2.062,2.653 -5.902,5.313 -2.965,9.739 10.039,6.195 31.61,8.261 35.438,-7.086"
             inkscape:connector-curvature="0"
             id="path76"
             style="fill:#ffffff;fill-opacity:1;fill-rule:nonzero;stroke:none" /><path
             d="m 208.086,554.102 c 6.035,-16.938 24.117,-27.27 37.324,-38.465 17.789,-12.043 32.727,-25.547 49.652,-37.309 12.336,13.215 3.739,37.617 14.934,52.527 8.031,6.024 13.77,-6.601 22.09,-11.199 8.043,1.434 19.238,-3.445 23.551,4.313 2.582,-1.157 7.156,-4.313 6.883,-6.883 -20.954,-15.227 -15.508,-45.367 -26.129,-64.863 1.73,-6.914 -3.145,-10.918 -1.426,-17.809 19.219,-23.844 46.793,-39.594 70.312,-59.418 4.02,1.723 7.184,-2.578 8.051,-5.461 -2.023,0.305 -2.879,-2.301 -5.461,-1.437 -8.906,-28.996 -4.879,-56.536 -12.336,-82.649 6.309,-3.738 0,-9.199 0,-13.816 5.172,-30.676 -10.629,-61.692 2.864,-92.094 1.734,-5.762 -3.157,-10.066 -1.43,-13.777 -2.871,-16.055 5.453,-41.309 0,-57.989 1.703,-4.003 0.562,-10.8785 -1.434,-16.6207 1.434,-25.8398 -1.168,-46.789 -1.437,-70.039 1.144,-4.0235 6.316,-8.0469 9.761,-4.2969 0.856,-3.4258 -5.46,-9.18749 -4.312,-13.78906 -19.52,-0.5664 -43.906,0.86719 -64.578,4.31641 C 278.422,1.31641 215.836,-6.14453 162.73,8.49609 115.957,4.74609 73.4805,3.32812 27.5469,9.90234 24.9688,4.74609 18.3672,8.20312 13.7734,7.34375 9.46094,14.2383 4.58594,3.02734 0,11.3477 9.17969,28.8867 -4.02344,46.0938 4.30078,65.0391 6.02344,106.074 6.02344,151.125 9.74219,193.309 l 1.44531,0 c 0.582,28.418 9.4727,50.226 6.8906,78.324 3.1602,24.441 0.2891,47.969 -2.8633,73.226 -2.5859,4.02 -10.62886,1.164 -9.47261,8.036 -2.30469,8.316 13.77341,10.91 10.90231,22.101 2.2891,2.582 6.6133,1.141 9.7578,1.43 6.3165,12.054 17.5118,20.383 26.1211,30.433 16.3633,10.325 22.3985,28.692 39.9024,37.02 28.9842,30.141 65.7192,51.683 88.1172,85.535 7.758,6.035 11.477,12.629 13.769,22.094 -8.89,0.879 -5.171,7.746 -4.015,13.781 l 9.473,0 c -0.282,-1.434 0.859,-2.281 1.441,-2.851 7.168,-0.305 7.758,10.621 16.633,8.32 l -9.758,-16.656"
             inkscape:connector-curvature="0"
             id="path78"
             style="fill:#231f20;fill-opacity:1;fill-rule:nonzero;stroke:none" /><path
             d="m 213.555,527.988 c 11.754,-6.316 19.504,-19.242 33.285,-23.539 0,-5.449 7.18,-8.625 9.472,-10.902 7.18,-8.899 18.083,-14.934 23.543,-22.113 19.227,-12.918 30.141,-28.407 39.887,-46.778 25.848,-17.23 43.641,-39.035 68.906,-55.121 -2.011,-15.789 -2.011,-30.984 0,-45.355 -3.164,-2.571 0.274,-11.192 -2.882,-15.203 -2.871,-4.582 -5.743,-12.903 -2.586,-19.231 l -2.852,0 c 1.125,-18.359 0,-42.187 -5.473,-57.969 3.739,-13.222 -2.296,-28.164 5.473,-41.367 0.832,-55.058 -0.586,-111.3162 -4.043,-168.1522 -1.992,-3.4492 -8.312,1.4336 -8.312,-4.0156 l -2.875,0 c -4.02,8.3203 -11.465,1.1523 -19.223,4.0156 -26.133,-1.9922 -51.953,-8.8672 -81.246,-8.0195 -26.117,-0.8477 -51.371,0.5664 -75.762,4.0039 l 0,1.4375 c -18.664,5.457 -39.887,1.4336 -59.14,0 -22.95,-6.6133 -49.0786,0.8672 -74.6254,-1.4375 l 0,1.4375 c -5.1485,2 -12.625,2 -17.7774,0 l 0,-1.4375 c -1.168,4.0156 -7.1914,2.3047 -10.9219,2.8711 0.8633,-2.8711 -7.75,0.2929 -11.1875,1.1445 1.1485,85.5152 8.043,183.6722 15.2032,271.5042 -5.7422,21.238 -6.3164,50.238 0,71.761 13.2148,8.903 17.8086,24.68 33.0078,33.016 37.5972,52.238 97.5822,77.5 129.4492,134.902 6.613,13.766 16.094,-1.73 20.68,-5.453"
             inkscape:connector-curvature="0"
             id="path80"
             style="fill:#ffffff;fill-opacity:1;fill-rule:nonzero;stroke:none" /><path
             d="m 344.438,510.184 c -2.598,-8.606 -1.145,-23.539 -9.473,-30.422 l -6.891,-30.438 c -4.594,-1.144 -3.457,1.735 -5.453,4.328 -6.023,9.18 -16.652,9.18 -20.668,19.215 4.297,14.36 5.758,29.863 10.918,44.219 12.344,2.008 18.652,-14.648 31.567,-6.902"
             inkscape:connector-curvature="0"
             id="path82"
             style="fill:#ffffff;fill-opacity:1;fill-rule:nonzero;stroke:none" /><path
             d="m 261.16,396.773 c 20.559,-27.117 46.992,-45.91 80.793,-49.507 5.051,0.058 9.758,0.57 14.477,1.25 1.769,0.019 3.156,-1.485 3.34,-3.438 l -1.391,-4.133 -50.535,-75.828 c -2.473,-5.176 -9.465,-1.387 -10.61,-7.09 L 295,253.223 c 3.266,-6.184 4.535,-14.629 1.988,-20.606 -7.133,-11.113 -18.047,-19.316 -21.871,-32.129 1.371,-9.453 7.379,-17.234 10.344,-26.269 2.668,-6.27 3.75,-12.981 3.605,-20.137 5.051,2.02 12.243,5.938 16.942,0.625 4.172,-4.895 3.051,-12.148 0.379,-17.512 -4.098,-7.722 -13.672,-12.215 -21.059,-16.316 -1.773,-6.016 -1.945,-13.391 -8.121,-16.836 -4.137,-2.676 -8.848,-3.184 -13.769,-3.867 -1.54,-5.6643 -5.543,-10.6838 -11.657,-11.6291 -0.254,-4.4375 0.313,-10.3242 -4.011,-12.9805 -3.235,-2.9492 -7.379,-3.7109 -11.571,-2.9102 -0.824,-6.3085 -4.324,-12.1679 -10.34,-14.1015 l -6.273,-0.5274 c -5.211,-5.4765 -12.418,-5.7421 -19.465,-4.4335 -3.914,1.5624 -7.656,2.9101 -10.601,6.496 -6.075,-0.5312 -12.2,2.2149 -15.243,6.8047 -2.035,2.7071 -3.457,5.9571 -4.707,8.9961 -8.656,0.8672 -15.035,8.6992 -16.972,16.4844 l -1.442,8.66 c -15.328,13.594 -12.332,37.539 -5.957,54.551 l 7.301,16.504 c -5.414,11.621 -12.504,22.226 -18.535,33.711 -3.617,0.566 -8.328,0.078 -10.508,3.594 l -17.043,31.23 c -3.504,1.699 -7.6992,2.324 -9.8398,6.23 l -41.7539,76.598 c -1.1172,2.438 -0.0312,5.613 0.9961,7.859 l 4.7774,3.215 c 15.7695,2.282 31.8632,6.086 43.7032,19.645 5.351,4.89 11.316,14.004 19.613,9.66 l 2.656,-2.594 44.122,-80.152 c 0.617,-3.352 -3.458,-5.285 -1.032,-8.234 l 14.059,-28.008 c 2.055,-4.668 -3.988,-8.906 0.859,-12.696 l 1.34,1.778 c 3.207,10.554 7.566,23.125 4.457,34.492 0.895,12.727 14.973,17.52 24.973,20.586 l 4.519,8.262 c -2.152,3.535 -3.461,7.937 -1.687,12.031 12.465,29.211 25.254,57.992 37.879,87.012 1.34,1.597 3.629,1.382 5.105,0.464"
             inkscape:connector-curvature="0"
             id="path84"
             style="fill:#231f20;fill-opacity:1;fill-rule:nonzero;stroke:none" /><path
             d="m 345.688,338.152 c -0.43,-2.293 -2.376,-4.422 -3.774,-6.609 -34.07,-4.898 -63.238,15.691 -85.242,40.051 0.519,3.242 1.961,6.011 3.422,8.773 22.41,-23.988 49.73,-45.578 85.594,-42.215"
             inkscape:connector-curvature="0"
             id="path86"
             style="fill:#ee2722;fill-opacity:1;fill-rule:nonzero;stroke:none" /><path
             d="m 334.281,321.25 c -0.625,-2.273 -2.379,-4.199 -3.738,-6.211 -33.133,-1.328 -59.918,15.941 -81.602,39.473 1.016,2.418 1.469,5.09 3.223,7.05 21.918,-23.164 48.402,-41.562 82.117,-40.312"
             inkscape:connector-curvature="0"
             id="path88"
             style="fill:#ffffff;fill-opacity:1;fill-rule:nonzero;stroke:none" /><path
             d="m 324.223,306.152 c -1.368,-1.992 -2.438,-6.726 -6.082,-6.367 -31.411,0.266 -56.063,15.762 -77.102,36.121 0.504,3.055 1.742,5.848 3.395,8.586 21.777,-20.637 46.89,-39.289 79.789,-38.34"
             inkscape:connector-curvature="0"
             id="path90"
             style="fill:#ee2722;fill-opacity:1;fill-rule:nonzero;stroke:none" /><path
             d="m 158.344,281.953 c 0.363,-9.941 -10.77,-14.453 -17.555,-20.176 l -14.766,-7.824 c -0.933,-1.629 -1.722,-3.687 -0.539,-5.379 5.75,-6.386 12.25,2.278 17.868,4.043 6.781,3.77 12.898,8.574 18.628,13.43 l 13.594,-24.836 c -2.547,-8.113 -11.262,-13.633 -18.09,-17.793 -8.168,-4.043 -16.664,-9.395 -25.984,-7.461 -7.027,11.172 -12.824,22.844 -19.652,34.004 -3.469,0.351 -7.246,1.309 -8.606,5.156 l -37.4178,67.817 c -0.5273,2.355 2.3789,2.472 3.6289,3.3 18.2383,1.864 35.1989,14.118 48.3519,26.954 l 2.261,-0.606 38.278,-70.629"
             inkscape:connector-curvature="0"
             id="path92"
             style="fill:#ee2722;fill-opacity:1;fill-rule:nonzero;stroke:none" /><path
             d="m 314.23,291.824 c -0.847,-2.625 -2.429,-4.793 -4.191,-6.929 -30.535,-0.625 -55.227,14.285 -76.156,33.875 -0.09,3.125 1.769,6.031 3.203,8.804 21.519,-19.644 45.73,-35.484 77.144,-35.75"
             inkscape:connector-curvature="0"
             id="path94"
             style="fill:#ffffff;fill-opacity:1;fill-rule:nonzero;stroke:none" /><path
             d="m 303.816,277.168 c 0.153,-2.332 -2.121,-3.672 -3.464,-5.48 -28.743,-0.184 -52.223,13.222 -72.637,30.238 -1.309,2.469 0.351,5.398 1.523,7.41 20.973,-17.246 44.742,-31.68 74.578,-32.168"
             inkscape:connector-curvature="0"
             id="path96"
             style="fill:#ee2722;fill-opacity:1;fill-rule:nonzero;stroke:none" /><path
             d="m 288.34,262.258 c -1.328,-5.52 -4.817,-11.184 -10.711,-13.891 -11.512,-6.238 -25.856,-4.187 -37.125,1.418 -8.574,5.535 -17.316,11.074 -17.949,22.188 -0.325,6.25 2.175,11.816 5.16,16.562 17.898,-13.074 37.871,-22.832 60.625,-26.277"
             inkscape:connector-curvature="0"
             id="path98"
             style="fill:#ee2722;fill-opacity:1;fill-rule:nonzero;stroke:none" /><path
             d="m 212.105,274.188 c -1.953,-11.649 5.473,-22.657 14.754,-28.661 14.297,-10.554 37.852,-15.461 54.055,-6.816 l 6.203,3.672 c 1.414,-1.328 1.715,-4.082 0.918,-6.145 -6.375,-11.199 -16.211,-20.281 -21.281,-32.183 -2.207,-18.039 14.531,-30.957 12.285,-49.348 -1.047,-12.324 -1.742,-24.863 -4.504,-37.012 -1.473,14.317 -11.09,30.625 -24.93,37.637 -3.609,0.957 -6.621,-0.078 -9.472,-1.367 -2.52,-2.07 -4.153,-4.61 -5.184,-7.246 -3.496,1.914 -7.172,0.176 -10.359,-0.672 -5.551,-3.125 -8.414,-8.469 -8.313,-15.09 -5.007,-1.621 -9.007,-6.453 -9.722,-11.641 0.422,-3.535 -0.575,-7.714 1.25,-10.781 -9.567,-12.0506 -5.867,-29.2967 -0.145,-41.7381 l 3.469,-4.2305 c -2.328,-1.9023 -5.957,-1.3359 -8.586,-0.3008 -11.481,5.4375 -10.824,19.5313 -10.047,31.1133 -0.266,7.0311 4.727,16.1911 -0.344,21.7581 -2.394,1.218 -4.707,-0.672 -5.48,-2.547 -3.508,-13.6252 -6.512,-29.8088 -2.617,-43.1759 -8.391,5.2812 -9.246,16.0468 -8.508,25.2734 0.41,11.8165 3.656,22.7345 6.129,33.7305 0.187,1.934 -0.821,3.398 -2.25,4.707 -2.379,1.426 -4.719,-0.684 -5.688,-2.539 -4.914,-14.082 -6.699,-29.785 -6.261,-44.7657 -4.555,1.0156 -6.11,6.8164 -7.454,10.8399 -1.933,13.5938 2.754,27.2738 5.606,40.1948 -0.16,2.137 -0.059,5.254 -2.914,5.704 -7.231,-0.418 -6.77,-9.395 -9.067,-14.786 l -1.945,-13.593 c -6.144,8.386 -3.094,21.289 -0.906,31.328 9.551,25.41 24.617,47.773 37.113,71.738 5.645,13.613 13.981,26.934 12.891,43.137 -1.153,3.797 -0.434,8.992 1.66,12.469 2.766,2.421 6.016,3.836 9.375,4.484 l 0.269,-3.148"
             inkscape:connector-curvature="0"
             id="path100"
             style="fill:#fbbf16;fill-opacity:1;fill-rule:nonzero;stroke:none" /><path
             d="m 179.574,221.199 c -6.222,-13.543 -13.512,-26.394 -21.027,-39.219 l -0.567,0.059 -13.593,25.051 c 10.996,5.098 22.398,10.344 32.195,19.07 1.453,-0.906 2.008,-3.308 2.992,-4.961"
             inkscape:connector-curvature="0"
             id="path102"
             style="fill:#ffffff;fill-opacity:1;fill-rule:nonzero;stroke:none" /><path
             d="m 205.141,195.703 c -0.262,-4.629 -2.055,-8.906 -2.075,-12.988 4.536,6.543 9.282,15.176 17,18.476 2.305,-0.222 3.668,-2.121 4.246,-3.945 2.133,-17.461 -2.996,-35.371 -8.621,-50.898 -1.875,0.586 -3.855,2.136 -5.652,3.691 3.356,11.856 8.77,23.32 10.473,36.34 0.129,3.125 2.324,7.555 -0.375,9.754 -5.543,-3.106 -7.903,-9.094 -11.5,-13.985 -3.817,-6.972 -7.274,-14.394 -10.528,-21.425 -1.882,2.312 -9.894,3.711 -6.129,8.359 4.797,10.984 9.458,22.52 10.383,35.449 -0.687,0.852 -1.875,0.586 -2.527,0.078 -9.5,-9.55 -15.676,-20.769 -21.481,-32.187 l -5.257,3.808 c 7.648,12.227 14.136,26.524 28.086,33.868 1.531,-0.176 2.289,-0.246 3.343,-1.328 2.336,-3.731 0.645,-8.985 0.614,-13.067"
             inkscape:connector-curvature="0"
             id="path104"
             style="fill:#231f20;fill-opacity:1;fill-rule:nonzero;stroke:none" /><path
             d="m 301.059,146.086 c 0.457,-7.055 -6.875,-10.578 -11.801,-13.176 -0.606,-0.144 -1.996,-0.586 -1.703,0.567 l 0.996,9.804 c 3.691,1.934 7.062,4.531 11.176,4.864 l 1.332,-2.059"
             inkscape:connector-curvature="0"
             id="path106"
             style="fill:#ffffff;fill-opacity:1;fill-rule:nonzero;stroke:none" /><path
             d="m 262.727,127.812 c 1.835,-5.019 6.375,-11.894 1.218,-16.816 -0.957,0.117 -1.457,-1.023 -2.379,-0.527 -4.296,11.328 -10.16,22.363 -19.519,31.484 0.558,1.875 0.426,4.395 2.859,5.527 10.016,-0.996 13.321,-12.402 17.821,-19.668"
             inkscape:connector-curvature="0"
             id="path108"
             style="fill:#ffffff;fill-opacity:1;fill-rule:nonzero;stroke:none" /><path
             d="m 245.957,123.105 c 2.438,-8.601 14.578,-18.945 4.094,-26.7964 -5.578,12.0114 -13.688,21.8364 -24.824,32.9684 -0.95,2.032 -0.477,4.903 0.48,6.739 1.125,1.64 2.754,2.246 4.348,2.675 7.82,-1.367 11.84,-9.55 15.902,-15.586"
             inkscape:connector-curvature="0"
             id="path110"
             style="fill:#ffffff;fill-opacity:1;fill-rule:nonzero;stroke:none" /><path
             d="m 235.02,107.129 c 4.183,-6.609 7.558,-13.5821 8.75,-21.0665 -0.063,-2.5391 -1.997,-4.4531 -4.036,-5.418 l -4.574,0.8594 c -3.656,10.0586 -5.629,25.0191 -18.519,28.0471 -1.813,3.105 -2.926,7.48 -1.188,11.387 1.742,1.953 4.836,1.667 6.633,0.292 5.379,-2.453 9.953,-8.945 12.934,-14.101"
             inkscape:connector-curvature="0"
             id="path112"
             style="fill:#ffffff;fill-opacity:1;fill-rule:nonzero;stroke:none" /><path
             d="m 221.609,95.3125 c 3.161,-7.1289 4.746,-14.4727 4.918,-22.4609 -0.613,-2.0586 -2.047,-4.8438 -4.769,-4.961 -7.664,1.0039 -7.91,10.1172 -10.469,15.6328 -1.25,4.961 -0.984,11.3711 1.609,15.9297 3.411,2.9569 7.485,-0.9179 8.711,-4.1406"
             inkscape:connector-curvature="0"
             id="path114"
             style="fill:#ffffff;fill-opacity:1;fill-rule:nonzero;stroke:none" /><path
             d="m 430.492,16.6992 1.832,0 c 2.067,0 3.828,0.7617 3.828,2.6953 0,1.3867 -0.996,2.7617 -3.828,2.7617 -0.804,0 -1.39,-0.0468 -1.832,-0.125 l 0,-5.332 z m 0,-8.73045 -2.508,0 0,15.76175 c 1.328,0.1953 2.578,0.3789 4.454,0.3789 2.386,0 3.957,-0.5156 4.898,-1.1875 0.945,-0.7031 1.437,-1.7696 1.437,-3.2657 0,-2.0781 -1.371,-3.3281 -3.07,-3.8164 l 0,-0.1171 c 1.399,-0.2735 2.324,-1.543 2.656,-3.8672 0.368,-2.42191 0.727,-3.37894 0.973,-3.88675 l -2.613,0 c -0.391,0.50781 -0.758,1.95313 -1.078,4.02345 -0.371,2.0234 -1.371,2.7734 -3.383,2.7734 l -1.766,0 0,-6.79685 z m 2.656,20.15625 c -6.222,0 -11.312,-5.3438 -11.312,-11.9141 0,-6.71871 5.09,-12.01168 11.355,-12.01168 6.278,-0.03906 11.305,5.29297 11.305,11.93358 0,6.6484 -5.027,11.9922 -11.305,11.9922 l -0.043,0 z m 0.043,2.1875 c 7.731,0 13.879,-6.2695 13.879,-14.1016 0,-7.96871 -6.148,-14.19137 -13.922,-14.19137 -7.726,0 -13.992,6.22266 -13.992,14.19137 0,7.8321 6.266,14.1016 13.992,14.1016 l 0.043,0"
             inkscape:connector-curvature="0"
             id="path116"
             style="fill:#231f20;fill-opacity:1;fill-rule:nonzero;stroke:none" /><path
             d="m 887.328,145.066 1.836,0 c 2.051,0 3.828,0.762 3.828,2.7 0,1.382 -0.996,2.761 -3.828,2.761 -0.82,0 -1.406,-0.05 -1.836,-0.129 l 0,-5.332 z m 0,-8.726 -2.519,0 0,15.762 c 1.328,0.195 2.578,0.378 4.453,0.378 2.402,0 3.965,-0.515 4.902,-1.191 0.957,-0.703 1.445,-1.769 1.445,-3.262 0,-2.082 -1.367,-3.332 -3.066,-3.816 l 0,-0.117 c 1.387,-0.278 2.324,-1.543 2.656,-3.867 0.352,-2.422 0.723,-3.379 0.957,-3.887 l -2.597,0 c -0.391,0.508 -0.762,1.953 -1.094,4.019 -0.371,2.024 -1.367,2.778 -3.379,2.778 l -1.758,0 0,-6.797 z m 2.656,20.152 c -6.23,0 -11.308,-5.34 -11.308,-11.914 0,-6.719 5.078,-12.012 11.347,-12.012 6.27,-0.039 11.309,5.293 11.309,11.938 0,6.648 -5.039,11.988 -11.309,11.988 l -0.039,0 z m 0.039,2.192 c 7.735,0 13.887,-6.274 13.887,-14.106 0,-7.969 -6.152,-14.187 -13.926,-14.187 -7.734,0 -14.004,6.218 -14.004,14.187 0,7.832 6.27,14.106 14.004,14.106 l 0.039,0"
             inkscape:connector-curvature="0"
             id="path118"
             style="fill:#231f20;fill-opacity:1;fill-rule:nonzero;stroke:none" /></g></g></g></g></svg>